<svg xmlns="http://www.w3.org/2000/svg" version="1.1" viewBox="0.00 0.00 725.00 750.00" width="725.00" height="750.00">
<path fill="#262535" d="&#10;  M 517.83 527.23&#10;  Q 517.53 528.86 517.06 529.37&#10;  Q 516.67 529.78 516.68 530.25&#10;  Q 516.70 531.14 516.07 534.27&#10;  Q 515.57 536.75 515.69 538.30&#10;  Q 516.49 548.26 524.10 555.14&#10;  Q 529.30 559.84 535.37 562.88&#10;  C 543.35 566.88 551.32 570.37 554.14 577.85&#10;  Q 555.68 581.94 554.52 587.26&#10;  Q 552.94 594.47 548.12 599.19&#10;  Q 540.72 606.42 529.98 610.22&#10;  Q 522.36 612.92 517.50 613.97&#10;  Q 501.08 617.53 484.00 617.74&#10;  Q 437.05 618.30 394.38 604.65&#10;  Q 384.19 601.39 379.08 600.66&#10;  Q 364.92 598.65 351.81 604.03&#10;  Q 329.44 613.22 313.88 618.86&#10;  Q 278.61 631.65 241.64 624.12&#10;  C 229.22 621.59 219.33 615.72 208.72 608.33&#10;  C 199.41 601.85 192.31 593.34 190.73 581.71&#10;  Q 190.45 579.59 191.50 577.45&#10;  Q 196.03 568.24 204.45 561.96&#10;  Q 214.52 554.46 226.42 550.30&#10;  Q 230.36 548.93 231.41 547.72&#10;  C 232.84 546.06 233.09 542.47 231.41 540.87&#10;  Q 225.24 535.03 209.37 520.63&#10;  Q 206.41 517.95 204.46 513.54&#10;  Q 200.04 503.51 192.73 487.13&#10;  Q 190.98 483.21 189.57 482.16&#10;  Q 187.56 480.66 184.95 481.54&#10;  Q 183.48 482.04 181.37 483.98&#10;  Q 164.93 499.11 148.47 514.22&#10;  Q 147.33 515.27 146.15 514.59&#10;  Q 145.32 514.10 145.22 514.05&#10;  C 138.78 511.08 139.84 506.20 139.02 500.29&#10;  Q 138.79 498.65 138.65 495.75&#10;  Q 137.51 472.30 140.73 443.49&#10;  Q 143.45 419.21 155.91 399.69&#10;  Q 175.45 369.06 204.41 346.52&#10;  Q 205.20 345.91 205.52 345.08&#10;  Q 206.00 343.86 205.98 343.24&#10;  Q 205.20 324.01 206.70 304.04&#10;  Q 207.81 289.15 211.53 272.33&#10;  Q 222.30 223.51 252.02 185.81&#10;  Q 275.27 156.31 308.88 139.10&#10;  Q 341.29 122.51 377.27 123.03&#10;  Q 387.54 123.18 397.22 124.81&#10;  Q 435.89 131.30 467.00 155.71&#10;  Q 500.87 182.29 520.49 221.95&#10;  Q 523.75 228.54 527.99 240.38&#10;  Q 531.40 249.91 535.46 261.04&#10;  Q 536.70 264.42 540.44 282.50&#10;  Q 542.39 291.93 543.15 301.13&#10;  Q 543.58 306.26 543.53 319.17&#10;  Q 543.49 328.96 543.74 337.23&#10;  C 543.81 339.60 543.55 343.19 544.18 346.24&#10;  Q 544.63 348.38 546.39 350.69&#10;  Q 561.92 371.08 570.83 394.04&#10;  Q 573.67 401.37 576.77 413.03&#10;  Q 583.27 437.45 585.78 462.98&#10;  Q 586.70 472.38 586.75 480.99&#10;  Q 586.76 481.28 586.89 481.71&#10;  Q 587.02 482.14 587.02 482.38&#10;  Q 587.30 493.86 586.79 502.76&#10;  Q 586.54 507.07 585.17 508.95&#10;  Q 583.14 511.75 579.00 512.25&#10;  Q 576.83 512.52 574.47 511.35&#10;  Q 564.91 506.58 559.76 499.38&#10;  Q 558.52 497.64 554.96 492.28&#10;  C 552.59 488.71 550.29 486.46 546.33 485.73&#10;  C 541.34 484.82 538.18 488.69 536.28 493.11&#10;  Q 532.01 503.05 527.43 511.49&#10;  Q 526.45 513.31 522.68 518.79&#10;  Q 520.09 522.56 518.37 526.39&#10;  Q 518.33 526.47 518.14 526.65&#10;  Q 517.89 526.89 517.83 527.23&#10;  Z"/>
</svg>