<svg xmlns="http://www.w3.org/2000/svg" version="1.1" viewBox="0.00 0.00 174.00 180.00" width="174.00" height="180.00">
<g stroke-width="2.00" fill="none" stroke-linecap="butt">
<path stroke="#f6f6f6" d="&#10;  M 11.36 0.00&#10;  Q 10.37 6.74 11.27 13.27&#10;  A 0.62 0.62 0.0 0 1 10.60 13.97&#10;  Q 5.03 13.45 0.00 14.44"/>
<path stroke="#f6f6f6" d="&#10;  M 23.60 0.00&#10;  Q 24.67 1.98 24.77 4.53&#10;  Q 24.98 9.94 24.74 13.16&#10;  Q 24.69 13.78 25.31 13.78&#10;  L 37.96 13.78&#10;  A 0.71 0.71 0.0 0 1 38.67 14.49&#10;  L 38.67 27.04&#10;  A 0.73 0.73 0.0 0 1 37.94 27.77&#10;  L 25.95 27.77&#10;  A 1.16 1.16 0.0 0 1 24.79 26.61&#10;  L 24.79 14.62&#10;  Q 24.79 13.86 24.03 13.86&#10;  L 11.83 13.86&#10;  A 0.66 0.66 0.0 0 0 11.17 14.52&#10;  L 11.17 26.68&#10;  A 1.03 1.02 86.5 0 1 10.27 27.70&#10;  Q 4.57 28.38 0.00 27.04"/>
<path stroke="#f6f6f6" d="&#10;  M 39.02 0.00&#10;  L 38.72 12.03&#10;  Q 38.67 13.99 40.62 13.99&#10;  L 51.44 13.99&#10;  A 1.23 1.22 -87.4 0 0 52.66 12.87&#10;  Q 53.30 5.82 51.70 0.00"/>
<path stroke="#f6f6f6" d="&#10;  M 66.60 0.00&#10;  L 65.87 10.53&#10;  A 3.08 3.08 0.0 0 0 68.94 13.82&#10;  L 79.39 13.82&#10;  Q 80.00 13.82 80.05 13.21&#10;  Q 80.64 6.07 79.06 0.00"/>
<path stroke="#f6f6f6" d="&#10;  M 94.17 0.00&#10;  L 93.98 12.81&#10;  A 1.08 1.08 0.0 0 0 95.09 13.91&#10;  L 107.95 13.58"/>
<path stroke="#f6f6f6" d="&#10;  M 107.95 13.58&#10;  L 107.64 26.69&#10;  A 0.86 0.86 0.0 0 0 108.46 27.57&#10;  L 120.23 28.17&#10;  A 1.28 1.28 0.0 0 1 121.45 29.45&#10;  L 121.45 40.10&#10;  A 1.28 1.28 0.0 0 0 122.55 41.37&#10;  Q 128.23 42.19 134.13 41.54&#10;  A 1.14 1.13 88.2 0 0 135.13 40.47&#10;  L 135.74 28.35&#10;  Q 135.77 27.84 136.28 27.84&#10;  L 148.38 27.84&#10;  A 0.75 0.74 -90.0 0 1 149.12 28.59&#10;  L 149.12 41.12&#10;  A 0.47 0.47 0.0 0 0 149.59 41.59&#10;  L 161.96 41.59&#10;  A 0.72 0.72 0.0 0 0 162.68 40.90&#10;  L 163.31 28.44&#10;  A 0.62 0.60 -90.0 0 1 163.88 27.86&#10;  L 174.00 27.19"/>
<path stroke="#f6f6f6" d="&#10;  M 174.00 42.03&#10;  Q 168.80 41.04 163.68 41.53&#10;  Q 162.99 41.59 162.99 42.29&#10;  L 162.99 54.70&#10;  Q 162.99 55.34 163.63 55.34&#10;  L 174.00 55.21"/>
<path stroke="#f6f6f6" d="&#10;  M 174.00 69.57&#10;  L 164.28 69.18&#10;  A 1.17 1.16 -88.8 0 0 163.07 70.35&#10;  L 163.07 81.94&#10;  Q 163.07 83.33 164.46 83.28&#10;  L 174.00 82.93"/>
<path stroke="#f6f6f6" d="&#10;  M 174.00 97.24&#10;  Q 168.62 96.43 163.49 97.32&#10;  A 0.89 0.89 0.0 0 0 162.75 98.20&#10;  L 162.75 109.85&#10;  Q 162.75 110.15 163.05 110.20&#10;  Q 168.48 111.17 174.00 110.37"/>
<path stroke="#f6f6f6" d="&#10;  M 174.00 124.79&#10;  L 164.24 124.54&#10;  Q 163.07 124.51 163.07 125.69&#10;  L 163.07 137.75&#10;  A 0.78 0.78 0.0 0 0 163.87 138.53&#10;  L 174.00 138.18"/>
<path stroke="#f6f6f6" d="&#10;  M 174.00 152.67&#10;  L 163.48 151.94&#10;  Q 163.04 151.90 163.04 151.46&#10;  L 163.04 139.57&#10;  A 1.10 1.10 0.0 0 0 161.94 138.47&#10;  L 149.63 138.47&#10;  A 0.35 0.35 0.0 0 1 149.28 138.12&#10;  L 149.28 125.43&#10;  A 0.73 0.72 -0.0 0 1 150.01 124.71&#10;  L 160.99 124.71&#10;  A 2.07 2.07 0.0 0 0 163.06 122.64&#10;  L 163.06 111.27&#10;  Q 163.06 110.51 162.30 110.54&#10;  L 149.34 111.11&#10;  Q 148.92 111.13 148.95 110.72&#10;  L 149.56 98.50&#10;  A 1.29 1.28 5.2 0 0 148.43 97.15&#10;  Q 143.45 96.55 138.13 97.50"/>
<path stroke="#92929a" d="&#10;  M 138.13 97.50&#10;  Q 135.81 89.82 130.90 83.52&#10;  Q 130.59 83.13 130.58 82.64&#10;  Q 130.46 78.68 130.50 74.75&#10;  Q 130.56 69.52 128.31 61.54"/>
<path stroke="#f6f6f6" d="&#10;  M 128.31 61.54&#10;  Q 130.82 63.80 130.79 67.51&#10;  A 1.75 1.75 0.0 0 0 132.07 69.21&#10;  L 134.61 69.92&#10;  A 0.64 0.63 7.9 0 1 135.08 70.53&#10;  L 135.08 82.72&#10;  A 0.54 0.54 0.0 0 0 135.62 83.26&#10;  L 147.26 83.26&#10;  A 2.07 2.06 -0.0 0 0 149.33 81.20&#10;  L 149.33 69.78&#10;  A 0.67 0.66 -88.4 0 1 150.03 69.11&#10;  L 161.60 69.69&#10;  A 1.37 1.37 0.0 0 0 163.04 68.32&#10;  L 163.04 56.13&#10;  A 0.80 0.80 0.0 0 0 162.24 55.33&#10;  L 149.69 55.33&#10;  A 0.53 0.52 90.0 0 0 149.17 55.86&#10;  L 149.17 68.34&#10;  A 0.82 0.81 -0.0 0 1 148.35 69.15&#10;  L 136.45 69.15&#10;  A 1.12 1.12 0.0 0 1 135.33 68.03&#10;  L 135.33 56.60&#10;  A 1.05 1.04 0.0 0 1 136.38 55.56&#10;  L 147.43 55.56&#10;  Q 149.20 55.56 149.20 53.79&#10;  L 149.20 41.86&#10;  Q 149.20 41.51 148.84 41.51&#10;  L 136.36 41.51&#10;  Q 135.65 41.51 135.61 42.22&#10;  L 134.98 54.68&#10;  A 0.61 0.60 88.9 0 1 134.44 55.25&#10;  L 126.31 56.05"/>
<path stroke="#92929a" d="&#10;  M 126.31 56.05&#10;  Q 122.26 46.06 114.34 38.94&#10;  C 103.38 29.08 88.42 26.32 75.07 32.63&#10;  C 58.78 40.31 50.00 57.96 49.41 75.48&#10;  Q 49.30 79.02 49.41 82.07&#10;  Q 49.43 82.58 49.04 82.88&#10;  C 44.32 86.48 39.18 92.03 36.12 97.90&#10;  Q 34.21 101.55 33.67 106.80&#10;  Q 32.78 115.52 33.48 121.43&#10;  Q 33.65 122.91 35.53 123.43"/>
<path stroke="#f6f6f6" d="&#10;  M 35.53 123.43&#10;  Q 30.34 125.25 25.56 124.15&#10;  Q 25.04 124.03 25.04 123.49&#10;  L 25.04 111.40&#10;  A 0.50 0.50 0.0 0 1 25.57 110.90&#10;  L 30.01 111.12&#10;  A 1.96 1.96 0.0 0 0 32.07 109.13&#10;  Q 31.96 103.93 34.27 98.66&#10;  A 1.18 1.18 0.0 0 0 33.19 97.00&#10;  L 25.69 97.00&#10;  A 0.78 0.78 0.0 0 1 24.91 96.22&#10;  L 24.91 83.78&#10;  A 0.49 0.49 0.0 0 1 25.40 83.29&#10;  L 38.36 83.29&#10;  Q 38.74 83.29 38.74 82.91&#10;  L 38.74 69.97&#10;  Q 38.74 69.23 38.00 69.23&#10;  L 25.67 69.23&#10;  Q 24.93 69.23 24.93 68.49&#10;  L 24.93 56.94&#10;  A 1.48 1.48 0.0 0 0 23.61 55.47&#10;  Q 18.18 54.86 12.26 55.73&#10;  A 1.18 1.18 0.0 0 0 11.25 56.84&#10;  L 10.65 68.70&#10;  A 0.53 0.52 -85.8 0 1 10.08 69.20&#10;  Q 4.82 68.71 0.00 70.11"/>
<path stroke="#f6f6f6" d="&#10;  M 0.00 55.24&#10;  L 10.38 55.55&#10;  A 0.74 0.73 0.8 0 0 11.14 54.82&#10;  L 11.14 42.24&#10;  A 0.82 0.81 -0.7 0 0 10.30 41.43&#10;  L 0.00 41.78"/>
<path stroke="#f6f6f6" d="&#10;  M 52.32 27.36&#10;  A 0.54 0.54 0.0 0 0 52.86 27.90&#10;  L 65.92 27.94&#10;  A 0.54 0.54 0.0 0 0 66.46 27.41&#10;  L 66.63 14.29&#10;  A 0.54 0.54 0.0 0 0 66.09 13.74&#10;  L 52.94 13.74&#10;  A 0.54 0.54 0.0 0 0 52.40 14.28&#10;  L 52.32 27.36"/>
<path stroke="#f6f6f6" d="&#10;  M 78.71 27.82&#10;  L 67.45 27.82&#10;  A 0.84 0.83 7.7 0 0 66.64 28.43&#10;  L 64.82 34.94&#10;  A 0.75 0.75 0.0 0 0 65.88 35.81&#10;  Q 72.31 32.54 74.57 31.30&#10;  Q 80.16 28.24 82.78 28.09&#10;  Q 85.37 27.95 93.08 27.39&#10;  A 1.04 1.04 0.0 0 0 94.04 26.35&#10;  L 94.04 14.59&#10;  A 0.42 0.42 0.0 0 0 93.64 14.17&#10;  L 81.12 13.53&#10;  A 1.06 1.06 0.0 0 0 80.01 14.59&#10;  L 80.01 26.52&#10;  A 1.30 1.30 0.0 0 1 78.71 27.82"/>
<path stroke="#f6f6f6" d="&#10;  M 23.59 41.62&#10;  A 1.06 1.06 0.0 0 1 24.66 42.66&#10;  L 24.83 54.26&#10;  A 1.06 1.06 0.0 0 0 25.87 55.31&#10;  L 37.60 55.63&#10;  A 1.06 1.06 0.0 0 1 38.63 56.71&#10;  L 38.38 68.21&#10;  A 1.06 1.06 0.0 0 0 39.45 69.29&#10;  L 47.21 69.24&#10;  A 1.06 1.06 0.0 0 0 48.23 68.47&#10;  L 51.49 56.80&#10;  A 1.06 1.06 0.0 0 0 50.49 55.46&#10;  L 39.94 55.29&#10;  A 1.06 1.06 0.0 0 1 38.90 54.26&#10;  L 38.57 43.01&#10;  A 1.06 1.06 0.0 0 1 39.60 41.92&#10;  L 51.72 41.59&#10;  A 1.06 1.06 0.0 0 0 52.75 40.50&#10;  L 52.47 28.75&#10;  A 1.06 1.06 0.0 0 0 51.41 27.72&#10;  L 39.62 27.67&#10;  A 1.06 1.06 0.0 0 0 38.55 28.73&#10;  L 38.50 40.44&#10;  A 1.06 1.06 0.0 0 1 37.45 41.49&#10;  L 25.94 41.65&#10;  A 1.06 1.06 0.0 0 1 24.87 40.59&#10;  L 24.84 28.59&#10;  A 1.06 1.06 0.0 0 0 23.75 27.53&#10;  L 12.03 27.88&#10;  A 1.06 1.06 0.0 0 0 11.00 28.92&#10;  L 10.82 40.60&#10;  A 1.06 1.06 0.0 0 0 11.88 41.67&#10;  L 23.59 41.62"/>
<path stroke="#f6f6f6" d="&#10;  M 163.0018 84.8055&#10;  A 1.79 1.79 0.0 0 0 161.2056 83.0217&#10;  L 150.7056 83.0584&#10;  A 1.79 1.79 0.0 0 0 148.9219 84.8546&#10;  L 148.9582 95.2545&#10;  A 1.79 1.79 0.0 0 0 150.7544 97.0383&#10;  L 161.2544 97.0016&#10;  A 1.79 1.79 0.0 0 0 163.0381 95.2054&#10;  L 163.0018 84.8055"/>
<path stroke="#f6f6f6" d="&#10;  M 106.86 0.00&#10;  Q 108.52 5.95 107.95 13.58"/>
<path stroke="#f6f6f6" d="&#10;  M 121.98 0.00&#10;  Q 120.99 6.26 121.39 12.81&#10;  A 0.73 0.73 0.0 0 1 120.66 13.59&#10;  L 107.95 13.58"/>
<path stroke="#f6f6f6" d="&#10;  M 134.60 0.00&#10;  Q 135.81 6.19 135.52 13.18&#10;  A 0.83 0.82 1.1 0 1 134.69 13.97&#10;  L 121.91 13.97&#10;  Q 121.32 13.97 121.35 14.56&#10;  L 121.89 26.97&#10;  A 0.59 0.59 0.0 0 0 122.48 27.53&#10;  L 135.20 27.53&#10;  A 0.37 0.36 86.5 0 0 135.56 27.12&#10;  Q 134.80 21.05 135.48 15.10&#10;  A 1.48 1.47 3.0 0 1 136.95 13.79&#10;  L 148.16 13.79&#10;  Q 148.82 13.79 148.85 13.13&#10;  L 149.39 0.00"/>
<path stroke="#f6f6f6" d="&#10;  M 162.28 0.00&#10;  Q 163.82 6.64 163.28 13.36&#10;  Q 163.23 13.92 162.67 13.92&#10;  L 149.61 13.92&#10;  Q 149.22 13.92 149.22 14.31&#10;  L 149.22 27.03&#10;  Q 149.22 27.57 149.76 27.57&#10;  L 162.59 27.57&#10;  Q 162.98 27.57 162.98 27.18&#10;  L 162.98 15.06&#10;  A 1.48 1.48 0.0 0 1 164.58 13.58&#10;  L 174.00 14.31"/>
<path stroke="#8a8991" d="&#10;  M 126.31 56.05&#10;  L 128.31 61.54"/>
<path stroke="#8a8991" d="&#10;  M 138.13 97.50&#10;  Q 141.44 108.84 140.91 120.84&#10;  A 2.06 2.06 0.0 0 1 138.17 122.69&#10;  Q 135.29 121.67 133.31 118.32&#10;  Q 132.71 117.30 132.22 116.95&#10;  Q 131.09 116.12 130.14 116.55&#10;  Q 129.37 116.89 128.76 118.29&#10;  Q 127.57 120.99 126.18 123.47"/>
<path stroke="#92929a" d="&#10;  M 126.18 123.47&#10;  Q 120.69 130.37 128.36 134.64&#10;  C 130.53 135.86 133.36 136.65 133.30 139.83"/>
<path stroke="#8a8991" d="&#10;  M 133.30 139.83&#10;  C 133.06 146.40 122.44 147.86 117.76 148.05&#10;  Q 105.64 148.53 94.22 144.86"/>
<path stroke="#92929a" d="&#10;  M 94.22 144.86&#10;  Q 89.13 142.96 84.75 144.74&#10;  Q 77.10 147.85 74.40 148.73&#10;  Q 65.85 151.50 57.08 149.45&#10;  Q 54.15 148.76 50.53 146.19"/>
<path stroke="#8a8991" d="&#10;  M 50.53 146.19&#10;  Q 45.81 143.23 45.65 138.77"/>
<path stroke="#92929a" d="&#10;  M 45.65 138.77&#10;  C 47.21 134.85 51.14 132.83 54.91 131.50&#10;  A 1.18 1.17 -33.4 0 0 55.32 129.53&#10;  L 49.47 124.16"/>
<path stroke="#8a8991" d="&#10;  M 49.47 124.16&#10;  L 45.83 116.04&#10;  A 1.15 1.15 0.0 0 0 44.00 115.66&#10;  L 35.53 123.43"/>
<path stroke="#f6f6f6" d="&#10;  M 49.47 124.16&#10;  L 39.72 125.51&#10;  A 0.98 0.97 -4.1 0 0 38.88 126.47&#10;  L 38.88 137.59&#10;  Q 38.88 138.54 37.93 138.54&#10;  L 25.51 138.54&#10;  Q 24.81 138.54 24.81 137.84&#10;  L 24.81 125.22&#10;  Q 24.81 124.76 24.35 124.76&#10;  L 12.28 124.76&#10;  Q 11.29 124.76 11.29 125.76&#10;  L 11.29 137.78&#10;  A 0.56 0.56 0.0 0 0 11.85 138.34&#10;  L 23.79 138.34&#10;  A 1.00 1.00 0.0 0 1 24.79 139.34&#10;  L 24.79 151.41&#10;  A 0.82 0.82 0.0 0 1 23.97 152.23&#10;  L 12.08 152.23&#10;  A 1.11 1.10 0.0 0 1 10.97 151.13&#10;  L 10.97 139.34&#10;  A 0.60 0.60 0.0 0 0 10.42 138.74&#10;  L 0.00 137.92"/>
<path stroke="#f6f6f6" d="&#10;  M 0.00 124.63&#10;  L 10.26 124.41&#10;  A 0.76 0.76 0.0 0 0 11.00 123.65&#10;  L 11.00 111.78&#10;  A 0.94 0.93 1.0 0 0 10.09 110.85&#10;  L 0.00 110.54"/>
<path stroke="#f6f6f6" d="&#10;  M 0.00 96.97&#10;  L 9.01 96.93&#10;  A 2.01 2.01 0.0 0 0 11.01 94.92&#10;  L 11.01 84.03&#10;  A 0.69 0.68 1.3 0 0 10.35 83.35&#10;  L 0.00 82.93"/>
<path stroke="#f6f6f6" d="&#10;  M 24.76 70.45&#10;  A 1.12 1.12 0.0 0 0 23.61 69.34&#10;  L 12.29 69.59&#10;  A 1.12 1.12 0.0 0 0 11.19 70.71&#10;  L 11.24 81.76&#10;  A 1.12 1.12 0.0 0 0 12.34 82.87&#10;  L 23.79 83.02&#10;  A 1.12 1.12 0.0 0 0 24.92 81.89&#10;  L 24.76 70.45"/>
<path stroke="#f6f6f6" d="&#10;  M 25.0968 98.4339&#10;  A 1.19 1.19 0.0 0 0 23.9278 97.2233&#10;  L 12.2096 97.0188&#10;  A 1.19 1.19 0.0 0 0 10.9990 98.1878&#10;  L 10.8032 109.4061&#10;  A 1.19 1.19 0.0 0 0 11.9722 110.6167&#10;  L 23.6904 110.8212&#10;  A 1.19 1.19 0.0 0 0 24.9010 109.6522&#10;  L 25.0968 98.4339"/>
<path stroke="#f6f6f6" d="&#10;  M 174.00 165.13&#10;  Q 169.09 166.48 164.12 166.10&#10;  Q 162.98 166.01 162.98 164.86&#10;  L 162.98 152.93&#10;  A 0.57 0.57 0.0 0 0 162.41 152.36&#10;  L 149.78 152.36&#10;  Q 149.14 152.36 149.14 153.00&#10;  L 149.14 165.27&#10;  A 0.85 0.85 0.0 0 1 148.29 166.12&#10;  L 137.28 166.12&#10;  A 2.01 2.01 0.0 0 1 135.27 164.11&#10;  L 135.27 152.75&#10;  A 0.56 0.56 0.0 0 1 135.83 152.19&#10;  L 148.66 152.19&#10;  A 0.38 0.38 0.0 0 0 149.04 151.81&#10;  L 149.04 139.13&#10;  Q 149.04 138.81 148.73 138.81&#10;  L 136.07 138.81&#10;  A 1.34 1.34 0.0 0 1 134.73 137.39&#10;  L 135.35 125.08&#10;  A 0.90 0.90 0.0 0 0 134.21 124.17&#10;  L 128.34 125.85&#10;  A 0.73 0.70 -34.2 0 1 127.74 125.75&#10;  Q 126.73 125.05 126.18 123.47"/>
<path stroke="#f6f6f6" d="&#10;  M 162.29 180.00&#10;  Q 163.69 173.73 162.93 166.81&#10;  A 0.89 0.87 -2.9 0 0 162.05 166.03&#10;  L 149.99 166.03&#10;  A 0.96 0.95 -0.0 0 0 149.03 166.98&#10;  L 149.03 178.75&#10;  Q 149.03 179.34 149.56 179.61&#10;  Q 150.37 180.03 151.52 180.00"/>
<path stroke="#f6f6f6" d="&#10;  M 134.46 180.00&#10;  Q 135.91 173.35 135.23 166.60&#10;  A 0.68 0.67 87.2 0 0 134.56 165.99&#10;  L 122.28 165.99&#10;  A 0.52 0.52 0.0 0 1 121.76 165.47&#10;  L 121.76 152.92&#10;  Q 121.76 152.24 122.44 152.24&#10;  L 134.26 152.24&#10;  A 1.16 1.16 0.0 0 0 135.42 151.08&#10;  L 135.42 141.10&#10;  Q 135.42 140.59 134.97 140.35&#10;  Q 134.25 139.97 133.30 139.83"/>
<path stroke="#f6f6f6" d="&#10;  M 45.65 138.77&#10;  L 39.53 138.38&#10;  A 0.73 0.73 0.0 0 0 38.75 139.11&#10;  L 38.75 151.13&#10;  A 1.10 1.10 0.0 0 0 39.85 152.23&#10;  L 52.20 152.23&#10;  A 0.26 0.26 0.0 0 1 52.46 152.49&#10;  L 52.46 165.58&#10;  Q 52.46 166.18 51.87 166.18&#10;  L 39.40 166.18&#10;  A 1.01 1.01 0.0 0 0 38.39 167.26&#10;  L 39.26 180.00"/>
<path stroke="#f6f6f6" d="&#10;  M 24.34 180.00&#10;  Q 25.41 173.75 24.91 166.60&#10;  Q 24.88 166.17 25.31 166.17&#10;  L 37.30 166.17&#10;  Q 38.74 166.17 38.74 164.74&#10;  L 38.74 153.49&#10;  A 1.30 1.29 -90.0 0 0 37.45 152.19&#10;  L 26.39 152.19&#10;  A 1.67 1.67 0.0 0 0 24.72 153.86&#10;  L 24.72 164.91&#10;  A 1.11 1.10 -0.0 0 1 23.61 166.01&#10;  L 12.40 166.01&#10;  A 1.39 1.38 -87.5 0 0 11.02 167.28&#10;  Q 10.42 174.30 11.57 180.00"/>
<path stroke="#f6f6f6" d="&#10;  M 0.00 165.55&#10;  Q 4.65 166.59 10.02 165.96&#10;  A 1.28 1.28 0.0 0 0 11.15 164.69&#10;  L 11.15 153.71&#10;  A 1.42 1.41 -87.1 0 0 9.88 152.30&#10;  Q 4.65 151.75 0.00 152.68"/>
<path stroke="#f6f6f6" d="&#10;  M 50.53 146.19&#10;  Q 51.60 149.21 53.84 151.54&#10;  Q 54.20 151.91 54.72 151.94&#10;  L 65.80 152.50&#10;  A 0.67 0.66 -88.7 0 1 66.43 153.17&#10;  L 66.43 165.32&#10;  A 0.77 0.76 -0.0 0 0 67.20 166.08&#10;  L 79.43 166.08&#10;  A 0.43 0.43 0.0 0 1 79.86 166.47&#10;  Q 80.56 173.32 79.56 180.00"/>
<path stroke="#f6f6f6" d="&#10;  M 66.67 180.00&#10;  L 65.87 167.10&#10;  Q 65.81 166.24 64.95 166.24&#10;  L 53.20 166.24&#10;  Q 52.62 166.24 52.62 166.82&#10;  C 52.70 172.03 53.15 176.09 51.82 180.00"/>
<path stroke="#f6f6f6" d="&#10;  M 123.26 180.00&#10;  Q 122.41 179.94 121.85 179.63&#10;  Q 121.39 179.36 121.39 178.82&#10;  L 121.39 167.14&#10;  A 0.96 0.96 0.0 0 0 120.43 166.18&#10;  L 108.62 166.18&#10;  A 0.95 0.95 0.0 0 1 107.67 165.23&#10;  L 107.67 153.18&#10;  A 0.72 0.72 0.0 0 0 106.95 152.46&#10;  L 94.40 152.46&#10;  A 0.44 0.43 0.0 0 0 93.96 152.89&#10;  L 93.96 165.54&#10;  A 0.59 0.59 0.0 0 0 94.55 166.13&#10;  L 107.03 166.13&#10;  A 0.72 0.72 0.0 0 1 107.75 166.78&#10;  Q 108.36 173.34 107.32 180.00"/>
<path stroke="#f6f6f6" d="&#10;  M 94.62 180.00&#10;  Q 92.98 173.95 93.88 166.77&#10;  A 0.48 0.48 0.0 0 0 93.40 166.23&#10;  L 80.67 166.23&#10;  A 0.73 0.73 0.0 0 1 79.94 165.50&#10;  L 79.94 152.80&#10;  Q 79.94 152.05 80.68 152.05&#10;  L 93.15 152.05&#10;  A 0.69 0.69 0.0 0 0 93.84 151.40&#10;  L 94.22 144.86"/>
</g>
<path fill="#fefefe" d="&#10;  M 11.36 0.00&#10;  Q 10.37 6.74 11.27 13.27&#10;  A 0.62 0.62 0.0 0 1 10.60 13.97&#10;  Q 5.03 13.45 0.00 14.44&#10;  L 0.00 0.00&#10;  L 11.36 0.00&#10;  Z"/>
<path fill="#ededed" d="&#10;  M 23.60 0.00&#10;  Q 24.67 1.98 24.77 4.53&#10;  Q 24.98 9.94 24.74 13.16&#10;  Q 24.69 13.78 25.31 13.78&#10;  L 37.96 13.78&#10;  A 0.71 0.71 0.0 0 1 38.67 14.49&#10;  L 38.67 27.04&#10;  A 0.73 0.73 0.0 0 1 37.94 27.77&#10;  L 25.95 27.77&#10;  A 1.16 1.16 0.0 0 1 24.79 26.61&#10;  L 24.79 14.62&#10;  Q 24.79 13.86 24.03 13.86&#10;  L 11.83 13.86&#10;  A 0.66 0.66 0.0 0 0 11.17 14.52&#10;  L 11.17 26.68&#10;  A 1.03 1.02 86.5 0 1 10.27 27.70&#10;  Q 4.57 28.38 0.00 27.04&#10;  L 0.00 14.44&#10;  Q 5.03 13.45 10.60 13.97&#10;  A 0.62 0.62 0.0 0 0 11.27 13.27&#10;  Q 10.37 6.74 11.36 0.00&#10;  L 23.60 0.00&#10;  Z"/>
<path fill="#fefefe" d="&#10;  M 39.02 0.00&#10;  L 38.72 12.03&#10;  Q 38.67 13.99 40.62 13.99&#10;  L 51.44 13.99&#10;  A 1.23 1.22 -87.4 0 0 52.66 12.87&#10;  Q 53.30 5.82 51.70 0.00&#10;  L 66.60 0.00&#10;  L 65.87 10.53&#10;  A 3.08 3.08 0.0 0 0 68.94 13.82&#10;  L 79.39 13.82&#10;  Q 80.00 13.82 80.05 13.21&#10;  Q 80.64 6.07 79.06 0.00&#10;  L 94.17 0.00&#10;  L 93.98 12.81&#10;  A 1.08 1.08 0.0 0 0 95.09 13.91&#10;  L 107.95 13.58&#10;  L 107.64 26.69&#10;  A 0.86 0.86 0.0 0 0 108.46 27.57&#10;  L 120.23 28.17&#10;  A 1.28 1.28 0.0 0 1 121.45 29.45&#10;  L 121.45 40.10&#10;  A 1.28 1.28 0.0 0 0 122.55 41.37&#10;  Q 128.23 42.19 134.13 41.54&#10;  A 1.14 1.13 88.2 0 0 135.13 40.47&#10;  L 135.74 28.35&#10;  Q 135.77 27.84 136.28 27.84&#10;  L 148.38 27.84&#10;  A 0.75 0.74 -90.0 0 1 149.12 28.59&#10;  L 149.12 41.12&#10;  A 0.47 0.47 0.0 0 0 149.59 41.59&#10;  L 161.96 41.59&#10;  A 0.72 0.72 0.0 0 0 162.68 40.90&#10;  L 163.31 28.44&#10;  A 0.62 0.60 -90.0 0 1 163.88 27.86&#10;  L 174.00 27.19&#10;  L 174.00 42.03&#10;  Q 168.80 41.04 163.68 41.53&#10;  Q 162.99 41.59 162.99 42.29&#10;  L 162.99 54.70&#10;  Q 162.99 55.34 163.63 55.34&#10;  L 174.00 55.21&#10;  L 174.00 69.57&#10;  L 164.28 69.18&#10;  A 1.17 1.16 -88.8 0 0 163.07 70.35&#10;  L 163.07 81.94&#10;  Q 163.07 83.33 164.46 83.28&#10;  L 174.00 82.93&#10;  L 174.00 97.24&#10;  Q 168.62 96.43 163.49 97.32&#10;  A 0.89 0.89 0.0 0 0 162.75 98.20&#10;  L 162.75 109.85&#10;  Q 162.75 110.15 163.05 110.20&#10;  Q 168.48 111.17 174.00 110.37&#10;  L 174.00 124.79&#10;  L 164.24 124.54&#10;  Q 163.07 124.51 163.07 125.69&#10;  L 163.07 137.75&#10;  A 0.78 0.78 0.0 0 0 163.87 138.53&#10;  L 174.00 138.18&#10;  L 174.00 152.67&#10;  L 163.48 151.94&#10;  Q 163.04 151.90 163.04 151.46&#10;  L 163.04 139.57&#10;  A 1.10 1.10 0.0 0 0 161.94 138.47&#10;  L 149.63 138.47&#10;  A 0.35 0.35 0.0 0 1 149.28 138.12&#10;  L 149.28 125.43&#10;  A 0.73 0.72 -0.0 0 1 150.01 124.71&#10;  L 160.99 124.71&#10;  A 2.07 2.07 0.0 0 0 163.06 122.64&#10;  L 163.06 111.27&#10;  Q 163.06 110.51 162.30 110.54&#10;  L 149.34 111.11&#10;  Q 148.92 111.13 148.95 110.72&#10;  L 149.56 98.50&#10;  A 1.29 1.28 5.2 0 0 148.43 97.15&#10;  Q 143.45 96.55 138.13 97.50&#10;  Q 135.81 89.82 130.90 83.52&#10;  Q 130.59 83.13 130.58 82.64&#10;  Q 130.46 78.68 130.50 74.75&#10;  Q 130.56 69.52 128.31 61.54&#10;  Q 130.82 63.80 130.79 67.51&#10;  A 1.75 1.75 0.0 0 0 132.07 69.21&#10;  L 134.61 69.92&#10;  A 0.64 0.63 7.9 0 1 135.08 70.53&#10;  L 135.08 82.72&#10;  A 0.54 0.54 0.0 0 0 135.62 83.26&#10;  L 147.26 83.26&#10;  A 2.07 2.06 -0.0 0 0 149.33 81.20&#10;  L 149.33 69.78&#10;  A 0.67 0.66 -88.4 0 1 150.03 69.11&#10;  L 161.60 69.69&#10;  A 1.37 1.37 0.0 0 0 163.04 68.32&#10;  L 163.04 56.13&#10;  A 0.80 0.80 0.0 0 0 162.24 55.33&#10;  L 149.69 55.33&#10;  A 0.53 0.52 90.0 0 0 149.17 55.86&#10;  L 149.17 68.34&#10;  A 0.82 0.81 -0.0 0 1 148.35 69.15&#10;  L 136.45 69.15&#10;  A 1.12 1.12 0.0 0 1 135.33 68.03&#10;  L 135.33 56.60&#10;  A 1.05 1.04 0.0 0 1 136.38 55.56&#10;  L 147.43 55.56&#10;  Q 149.20 55.56 149.20 53.79&#10;  L 149.20 41.86&#10;  Q 149.20 41.51 148.84 41.51&#10;  L 136.36 41.51&#10;  Q 135.65 41.51 135.61 42.22&#10;  L 134.98 54.68&#10;  A 0.61 0.60 88.9 0 1 134.44 55.25&#10;  L 126.31 56.05&#10;  Q 122.26 46.06 114.34 38.94&#10;  C 103.38 29.08 88.42 26.32 75.07 32.63&#10;  C 58.78 40.31 50.00 57.96 49.41 75.48&#10;  Q 49.30 79.02 49.41 82.07&#10;  Q 49.43 82.58 49.04 82.88&#10;  C 44.32 86.48 39.18 92.03 36.12 97.90&#10;  Q 34.21 101.55 33.67 106.80&#10;  Q 32.78 115.52 33.48 121.43&#10;  Q 33.65 122.91 35.53 123.43&#10;  Q 30.34 125.25 25.56 124.15&#10;  Q 25.04 124.03 25.04 123.49&#10;  L 25.04 111.40&#10;  A 0.50 0.50 0.0 0 1 25.57 110.90&#10;  L 30.01 111.12&#10;  A 1.96 1.96 0.0 0 0 32.07 109.13&#10;  Q 31.96 103.93 34.27 98.66&#10;  A 1.18 1.18 0.0 0 0 33.19 97.00&#10;  L 25.69 97.00&#10;  A 0.78 0.78 0.0 0 1 24.91 96.22&#10;  L 24.91 83.78&#10;  A 0.49 0.49 0.0 0 1 25.40 83.29&#10;  L 38.36 83.29&#10;  Q 38.74 83.29 38.74 82.91&#10;  L 38.74 69.97&#10;  Q 38.74 69.23 38.00 69.23&#10;  L 25.67 69.23&#10;  Q 24.93 69.23 24.93 68.49&#10;  L 24.93 56.94&#10;  A 1.48 1.48 0.0 0 0 23.61 55.47&#10;  Q 18.18 54.86 12.26 55.73&#10;  A 1.18 1.18 0.0 0 0 11.25 56.84&#10;  L 10.65 68.70&#10;  A 0.53 0.52 -85.8 0 1 10.08 69.20&#10;  Q 4.82 68.71 0.00 70.11&#10;  L 0.00 55.24&#10;  L 10.38 55.55&#10;  A 0.74 0.73 0.8 0 0 11.14 54.82&#10;  L 11.14 42.24&#10;  A 0.82 0.81 -0.7 0 0 10.30 41.43&#10;  L 0.00 41.78&#10;  L 0.00 27.04&#10;  Q 4.57 28.38 10.27 27.70&#10;  A 1.03 1.02 86.5 0 0 11.17 26.68&#10;  L 11.17 14.52&#10;  A 0.66 0.66 0.0 0 1 11.83 13.86&#10;  L 24.03 13.86&#10;  Q 24.79 13.86 24.79 14.62&#10;  L 24.79 26.61&#10;  A 1.16 1.16 0.0 0 0 25.95 27.77&#10;  L 37.94 27.77&#10;  A 0.73 0.73 0.0 0 0 38.67 27.04&#10;  L 38.67 14.49&#10;  A 0.71 0.71 0.0 0 0 37.96 13.78&#10;  L 25.31 13.78&#10;  Q 24.69 13.78 24.74 13.16&#10;  Q 24.98 9.94 24.77 4.53&#10;  Q 24.67 1.98 23.60 0.00&#10;  L 39.02 0.00&#10;  Z&#10;  M 52.32 27.36&#10;  A 0.54 0.54 0.0 0 0 52.86 27.90&#10;  L 65.92 27.94&#10;  A 0.54 0.54 0.0 0 0 66.46 27.41&#10;  L 66.63 14.29&#10;  A 0.54 0.54 0.0 0 0 66.09 13.74&#10;  L 52.94 13.74&#10;  A 0.54 0.54 0.0 0 0 52.40 14.28&#10;  L 52.32 27.36&#10;  Z&#10;  M 78.71 27.82&#10;  L 67.45 27.82&#10;  A 0.84 0.83 7.7 0 0 66.64 28.43&#10;  L 64.82 34.94&#10;  A 0.75 0.75 0.0 0 0 65.88 35.81&#10;  Q 72.31 32.54 74.57 31.30&#10;  Q 80.16 28.24 82.78 28.09&#10;  Q 85.37 27.95 93.08 27.39&#10;  A 1.04 1.04 0.0 0 0 94.04 26.35&#10;  L 94.04 14.59&#10;  A 0.42 0.42 0.0 0 0 93.64 14.17&#10;  L 81.12 13.53&#10;  A 1.06 1.06 0.0 0 0 80.01 14.59&#10;  L 80.01 26.52&#10;  A 1.30 1.30 0.0 0 1 78.71 27.82&#10;  Z&#10;  M 23.59 41.62&#10;  A 1.06 1.06 0.0 0 1 24.66 42.66&#10;  L 24.83 54.26&#10;  A 1.06 1.06 0.0 0 0 25.87 55.31&#10;  L 37.60 55.63&#10;  A 1.06 1.06 0.0 0 1 38.63 56.71&#10;  L 38.38 68.21&#10;  A 1.06 1.06 0.0 0 0 39.45 69.29&#10;  L 47.21 69.24&#10;  A 1.06 1.06 0.0 0 0 48.23 68.47&#10;  L 51.49 56.80&#10;  A 1.06 1.06 0.0 0 0 50.49 55.46&#10;  L 39.94 55.29&#10;  A 1.06 1.06 0.0 0 1 38.90 54.26&#10;  L 38.57 43.01&#10;  A 1.06 1.06 0.0 0 1 39.60 41.92&#10;  L 51.72 41.59&#10;  A 1.06 1.06 0.0 0 0 52.75 40.50&#10;  L 52.47 28.75&#10;  A 1.06 1.06 0.0 0 0 51.41 27.72&#10;  L 39.62 27.67&#10;  A 1.06 1.06 0.0 0 0 38.55 28.73&#10;  L 38.50 40.44&#10;  A 1.06 1.06 0.0 0 1 37.45 41.49&#10;  L 25.94 41.65&#10;  A 1.06 1.06 0.0 0 1 24.87 40.59&#10;  L 24.84 28.59&#10;  A 1.06 1.06 0.0 0 0 23.75 27.53&#10;  L 12.03 27.88&#10;  A 1.06 1.06 0.0 0 0 11.00 28.92&#10;  L 10.82 40.60&#10;  A 1.06 1.06 0.0 0 0 11.88 41.67&#10;  L 23.59 41.62&#10;  Z&#10;  M 163.0018 84.8055&#10;  A 1.79 1.79 0.0 0 0 161.2056 83.0217&#10;  L 150.7056 83.0584&#10;  A 1.79 1.79 0.0 0 0 148.9219 84.8546&#10;  L 148.9582 95.2545&#10;  A 1.79 1.79 0.0 0 0 150.7544 97.0383&#10;  L 161.2544 97.0016&#10;  A 1.79 1.79 0.0 0 0 163.0381 95.2054&#10;  L 163.0018 84.8055&#10;  Z"/>
<path fill="#ededed" d="&#10;  M 51.70 0.00&#10;  Q 53.30 5.82 52.66 12.87&#10;  A 1.23 1.22 -87.4 0 1 51.44 13.99&#10;  L 40.62 13.99&#10;  Q 38.67 13.99 38.72 12.03&#10;  L 39.02 0.00&#10;  L 51.70 0.00&#10;  Z"/>
<path fill="#ededed" d="&#10;  M 79.06 0.00&#10;  Q 80.64 6.07 80.05 13.21&#10;  Q 80.00 13.82 79.39 13.82&#10;  L 68.94 13.82&#10;  A 3.08 3.08 0.0 0 1 65.87 10.53&#10;  L 66.60 0.00&#10;  L 79.06 0.00&#10;  Z"/>
<path fill="#ededed" d="&#10;  M 106.86 0.00&#10;  Q 108.52 5.95 107.95 13.58&#10;  L 95.09 13.91&#10;  A 1.08 1.08 0.0 0 1 93.98 12.81&#10;  L 94.17 0.00&#10;  L 106.86 0.00&#10;  Z"/>
<path fill="#fefefe" d="&#10;  M 121.98 0.00&#10;  Q 120.99 6.26 121.39 12.81&#10;  A 0.73 0.73 0.0 0 1 120.66 13.59&#10;  L 107.95 13.58&#10;  Q 108.52 5.95 106.86 0.00&#10;  L 121.98 0.00&#10;  Z"/>
<path fill="#ededed" d="&#10;  M 134.60 0.00&#10;  Q 135.81 6.19 135.52 13.18&#10;  A 0.83 0.82 1.1 0 1 134.69 13.97&#10;  L 121.91 13.97&#10;  Q 121.32 13.97 121.35 14.56&#10;  L 121.89 26.97&#10;  A 0.59 0.59 0.0 0 0 122.48 27.53&#10;  L 135.20 27.53&#10;  A 0.37 0.36 86.5 0 0 135.56 27.12&#10;  Q 134.80 21.05 135.48 15.10&#10;  A 1.48 1.47 3.0 0 1 136.95 13.79&#10;  L 148.16 13.79&#10;  Q 148.82 13.79 148.85 13.13&#10;  L 149.39 0.00&#10;  L 162.28 0.00&#10;  Q 163.82 6.64 163.28 13.36&#10;  Q 163.23 13.92 162.67 13.92&#10;  L 149.61 13.92&#10;  Q 149.22 13.92 149.22 14.31&#10;  L 149.22 27.03&#10;  Q 149.22 27.57 149.76 27.57&#10;  L 162.59 27.57&#10;  Q 162.98 27.57 162.98 27.18&#10;  L 162.98 15.06&#10;  A 1.48 1.48 0.0 0 1 164.58 13.58&#10;  L 174.00 14.31&#10;  L 174.00 27.19&#10;  L 163.88 27.86&#10;  A 0.62 0.60 -90.0 0 0 163.31 28.44&#10;  L 162.68 40.90&#10;  A 0.72 0.72 0.0 0 1 161.96 41.59&#10;  L 149.59 41.59&#10;  A 0.47 0.47 0.0 0 1 149.12 41.12&#10;  L 149.12 28.59&#10;  A 0.75 0.74 -90.0 0 0 148.38 27.84&#10;  L 136.28 27.84&#10;  Q 135.77 27.84 135.74 28.35&#10;  L 135.13 40.47&#10;  A 1.14 1.13 88.2 0 1 134.13 41.54&#10;  Q 128.23 42.19 122.55 41.37&#10;  A 1.28 1.28 0.0 0 1 121.45 40.10&#10;  L 121.45 29.45&#10;  A 1.28 1.28 0.0 0 0 120.23 28.17&#10;  L 108.46 27.57&#10;  A 0.86 0.86 0.0 0 1 107.64 26.69&#10;  L 107.95 13.58&#10;  L 120.66 13.59&#10;  A 0.73 0.73 0.0 0 0 121.39 12.81&#10;  Q 120.99 6.26 121.98 0.00&#10;  L 134.60 0.00&#10;  Z"/>
<path fill="#fefefe" d="&#10;  M 149.39 0.00&#10;  L 148.85 13.13&#10;  Q 148.82 13.79 148.16 13.79&#10;  L 136.95 13.79&#10;  A 1.48 1.47 3.0 0 0 135.48 15.10&#10;  Q 134.80 21.05 135.56 27.12&#10;  A 0.37 0.36 86.5 0 1 135.20 27.53&#10;  L 122.48 27.53&#10;  A 0.59 0.59 0.0 0 1 121.89 26.97&#10;  L 121.35 14.56&#10;  Q 121.32 13.97 121.91 13.97&#10;  L 134.69 13.97&#10;  A 0.83 0.82 1.1 0 0 135.52 13.18&#10;  Q 135.81 6.19 134.60 0.00&#10;  L 149.39 0.00&#10;  Z"/>
<path fill="#fefefe" d="&#10;  M 174.00 0.00&#10;  L 174.00 14.31&#10;  L 164.58 13.58&#10;  A 1.48 1.48 0.0 0 0 162.98 15.06&#10;  L 162.98 27.18&#10;  Q 162.98 27.57 162.59 27.57&#10;  L 149.76 27.57&#10;  Q 149.22 27.57 149.22 27.03&#10;  L 149.22 14.31&#10;  Q 149.22 13.92 149.61 13.92&#10;  L 162.67 13.92&#10;  Q 163.23 13.92 163.28 13.36&#10;  Q 163.82 6.64 162.28 0.00&#10;  L 174.00 0.00&#10;  Z"/>
<path fill="#ededed" d="&#10;  M 52.32 27.36&#10;  L 52.40 14.28&#10;  A 0.54 0.54 0.0 0 1 52.94 13.74&#10;  L 66.09 13.74&#10;  A 0.54 0.54 0.0 0 1 66.63 14.29&#10;  L 66.46 27.41&#10;  A 0.54 0.54 0.0 0 1 65.92 27.94&#10;  L 52.86 27.90&#10;  A 0.54 0.54 0.0 0 1 52.32 27.36&#10;  Z"/>
<path fill="#ededed" d="&#10;  M 78.71 27.82&#10;  A 1.30 1.30 0.0 0 0 80.01 26.52&#10;  L 80.01 14.59&#10;  A 1.06 1.06 0.0 0 1 81.12 13.53&#10;  L 93.64 14.17&#10;  A 0.42 0.42 0.0 0 1 94.04 14.59&#10;  L 94.04 26.35&#10;  A 1.04 1.04 0.0 0 1 93.08 27.39&#10;  Q 85.37 27.95 82.78 28.09&#10;  Q 80.16 28.24 74.57 31.30&#10;  Q 72.31 32.54 65.88 35.81&#10;  A 0.75 0.75 0.0 0 1 64.82 34.94&#10;  L 66.64 28.43&#10;  A 0.84 0.83 7.7 0 1 67.45 27.82&#10;  L 78.71 27.82&#10;  Z"/>
<path fill="#ededed" d="&#10;  M 23.59 41.62&#10;  L 11.88 41.67&#10;  A 1.06 1.06 0.0 0 1 10.82 40.60&#10;  L 11.00 28.92&#10;  A 1.06 1.06 0.0 0 1 12.03 27.88&#10;  L 23.75 27.53&#10;  A 1.06 1.06 0.0 0 1 24.84 28.59&#10;  L 24.87 40.59&#10;  A 1.06 1.06 0.0 0 0 25.94 41.65&#10;  L 37.45 41.49&#10;  A 1.06 1.06 0.0 0 0 38.50 40.44&#10;  L 38.55 28.73&#10;  A 1.06 1.06 0.0 0 1 39.62 27.67&#10;  L 51.41 27.72&#10;  A 1.06 1.06 0.0 0 1 52.47 28.75&#10;  L 52.75 40.50&#10;  A 1.06 1.06 0.0 0 1 51.72 41.59&#10;  L 39.60 41.92&#10;  A 1.06 1.06 0.0 0 0 38.57 43.01&#10;  L 38.90 54.26&#10;  A 1.06 1.06 0.0 0 0 39.94 55.29&#10;  L 50.49 55.46&#10;  A 1.06 1.06 0.0 0 1 51.49 56.80&#10;  L 48.23 68.47&#10;  A 1.06 1.06 0.0 0 1 47.21 69.24&#10;  L 39.45 69.29&#10;  A 1.06 1.06 0.0 0 1 38.38 68.21&#10;  L 38.63 56.71&#10;  A 1.06 1.06 0.0 0 0 37.60 55.63&#10;  L 25.87 55.31&#10;  A 1.06 1.06 0.0 0 1 24.83 54.26&#10;  L 24.66 42.66&#10;  A 1.06 1.06 0.0 0 0 23.59 41.62&#10;  Z"/>
<path fill="#262535" d="&#10;  M 126.31 56.05&#10;  L 128.31 61.54&#10;  Q 130.56 69.52 130.50 74.75&#10;  Q 130.46 78.68 130.58 82.64&#10;  Q 130.59 83.13 130.90 83.52&#10;  Q 135.81 89.82 138.13 97.50&#10;  Q 141.44 108.84 140.91 120.84&#10;  A 2.06 2.06 0.0 0 1 138.17 122.69&#10;  Q 135.29 121.67 133.31 118.32&#10;  Q 132.71 117.30 132.22 116.95&#10;  Q 131.09 116.12 130.14 116.55&#10;  Q 129.37 116.89 128.76 118.29&#10;  Q 127.57 120.99 126.18 123.47&#10;  Q 120.69 130.37 128.36 134.64&#10;  C 130.53 135.86 133.36 136.65 133.30 139.83&#10;  C 133.06 146.40 122.44 147.86 117.76 148.05&#10;  Q 105.64 148.53 94.22 144.86&#10;  Q 89.13 142.96 84.75 144.74&#10;  Q 77.10 147.85 74.40 148.73&#10;  Q 65.85 151.50 57.08 149.45&#10;  Q 54.15 148.76 50.53 146.19&#10;  Q 45.81 143.23 45.65 138.77&#10;  C 47.21 134.85 51.14 132.83 54.91 131.50&#10;  A 1.18 1.17 -33.4 0 0 55.32 129.53&#10;  L 49.47 124.16&#10;  L 45.83 116.04&#10;  A 1.15 1.15 0.0 0 0 44.00 115.66&#10;  L 35.53 123.43&#10;  Q 33.65 122.91 33.48 121.43&#10;  Q 32.78 115.52 33.67 106.80&#10;  Q 34.21 101.55 36.12 97.90&#10;  C 39.18 92.03 44.32 86.48 49.04 82.88&#10;  Q 49.43 82.58 49.41 82.07&#10;  Q 49.30 79.02 49.41 75.48&#10;  C 50.00 57.96 58.78 40.31 75.07 32.63&#10;  C 88.42 26.32 103.38 29.08 114.34 38.94&#10;  Q 122.26 46.06 126.31 56.05&#10;  Z"/>
<path fill="#ededed" d="&#10;  M 0.00 55.24&#10;  L 0.00 41.78&#10;  L 10.30 41.43&#10;  A 0.82 0.81 -0.7 0 1 11.14 42.24&#10;  L 11.14 54.82&#10;  A 0.74 0.73 0.8 0 1 10.38 55.55&#10;  L 0.00 55.24&#10;  Z"/>
<path fill="#ededed" d="&#10;  M 128.31 61.54&#10;  L 126.31 56.05&#10;  L 134.44 55.25&#10;  A 0.61 0.60 88.9 0 0 134.98 54.68&#10;  L 135.61 42.22&#10;  Q 135.65 41.51 136.36 41.51&#10;  L 148.84 41.51&#10;  Q 149.20 41.51 149.20 41.86&#10;  L 149.20 53.79&#10;  Q 149.20 55.56 147.43 55.56&#10;  L 136.38 55.56&#10;  A 1.05 1.04 0.0 0 0 135.33 56.60&#10;  L 135.33 68.03&#10;  A 1.12 1.12 0.0 0 0 136.45 69.15&#10;  L 148.35 69.15&#10;  A 0.82 0.81 -0.0 0 0 149.17 68.34&#10;  L 149.17 55.86&#10;  A 0.53 0.52 90.0 0 1 149.69 55.33&#10;  L 162.24 55.33&#10;  A 0.80 0.80 0.0 0 1 163.04 56.13&#10;  L 163.04 68.32&#10;  A 1.37 1.37 0.0 0 1 161.60 69.69&#10;  L 150.03 69.11&#10;  A 0.67 0.66 -88.4 0 0 149.33 69.78&#10;  L 149.33 81.20&#10;  A 2.07 2.06 -0.0 0 1 147.26 83.26&#10;  L 135.62 83.26&#10;  A 0.54 0.54 0.0 0 1 135.08 82.72&#10;  L 135.08 70.53&#10;  A 0.64 0.63 7.9 0 0 134.61 69.92&#10;  L 132.07 69.21&#10;  A 1.75 1.75 0.0 0 1 130.79 67.51&#10;  Q 130.82 63.80 128.31 61.54&#10;  Z"/>
<path fill="#ededed" d="&#10;  M 174.00 42.03&#10;  L 174.00 55.21&#10;  L 163.63 55.34&#10;  Q 162.99 55.34 162.99 54.70&#10;  L 162.99 42.29&#10;  Q 162.99 41.59 163.68 41.53&#10;  Q 168.80 41.04 174.00 42.03&#10;  Z"/>
<path fill="#ededed" d="&#10;  M 35.53 123.43&#10;  L 44.00 115.66&#10;  A 1.15 1.15 0.0 0 1 45.83 116.04&#10;  L 49.47 124.16&#10;  L 39.72 125.51&#10;  A 0.98 0.97 -4.1 0 0 38.88 126.47&#10;  L 38.88 137.59&#10;  Q 38.88 138.54 37.93 138.54&#10;  L 25.51 138.54&#10;  Q 24.81 138.54 24.81 137.84&#10;  L 24.81 125.22&#10;  Q 24.81 124.76 24.35 124.76&#10;  L 12.28 124.76&#10;  Q 11.29 124.76 11.29 125.76&#10;  L 11.29 137.78&#10;  A 0.56 0.56 0.0 0 0 11.85 138.34&#10;  L 23.79 138.34&#10;  A 1.00 1.00 0.0 0 1 24.79 139.34&#10;  L 24.79 151.41&#10;  A 0.82 0.82 0.0 0 1 23.97 152.23&#10;  L 12.08 152.23&#10;  A 1.11 1.10 0.0 0 1 10.97 151.13&#10;  L 10.97 139.34&#10;  A 0.60 0.60 0.0 0 0 10.42 138.74&#10;  L 0.00 137.92&#10;  L 0.00 124.63&#10;  L 10.26 124.41&#10;  A 0.76 0.76 0.0 0 0 11.00 123.65&#10;  L 11.00 111.78&#10;  A 0.94 0.93 1.0 0 0 10.09 110.85&#10;  L 0.00 110.54&#10;  L 0.00 96.97&#10;  L 9.01 96.93&#10;  A 2.01 2.01 0.0 0 0 11.01 94.92&#10;  L 11.01 84.03&#10;  A 0.69 0.68 1.3 0 0 10.35 83.35&#10;  L 0.00 82.93&#10;  L 0.00 70.11&#10;  Q 4.82 68.71 10.08 69.20&#10;  A 0.53 0.52 -85.8 0 0 10.65 68.70&#10;  L 11.25 56.84&#10;  A 1.18 1.18 0.0 0 1 12.26 55.73&#10;  Q 18.18 54.86 23.61 55.47&#10;  A 1.48 1.48 0.0 0 1 24.93 56.94&#10;  L 24.93 68.49&#10;  Q 24.93 69.23 25.67 69.23&#10;  L 38.00 69.23&#10;  Q 38.74 69.23 38.74 69.97&#10;  L 38.74 82.91&#10;  Q 38.74 83.29 38.36 83.29&#10;  L 25.40 83.29&#10;  A 0.49 0.49 0.0 0 0 24.91 83.78&#10;  L 24.91 96.22&#10;  A 0.78 0.78 0.0 0 0 25.69 97.00&#10;  L 33.19 97.00&#10;  A 1.18 1.18 0.0 0 1 34.27 98.66&#10;  Q 31.96 103.93 32.07 109.13&#10;  A 1.96 1.96 0.0 0 1 30.01 111.12&#10;  L 25.57 110.90&#10;  A 0.50 0.50 0.0 0 0 25.04 111.40&#10;  L 25.04 123.49&#10;  Q 25.04 124.03 25.56 124.15&#10;  Q 30.34 125.25 35.53 123.43&#10;  Z&#10;  M 24.76 70.45&#10;  A 1.12 1.12 0.0 0 0 23.61 69.34&#10;  L 12.29 69.59&#10;  A 1.12 1.12 0.0 0 0 11.19 70.71&#10;  L 11.24 81.76&#10;  A 1.12 1.12 0.0 0 0 12.34 82.87&#10;  L 23.79 83.02&#10;  A 1.12 1.12 0.0 0 0 24.92 81.89&#10;  L 24.76 70.45&#10;  Z&#10;  M 25.0968 98.4339&#10;  A 1.19 1.19 0.0 0 0 23.9278 97.2233&#10;  L 12.2096 97.0188&#10;  A 1.19 1.19 0.0 0 0 10.9990 98.1878&#10;  L 10.8032 109.4061&#10;  A 1.19 1.19 0.0 0 0 11.9722 110.6167&#10;  L 23.6904 110.8212&#10;  A 1.19 1.19 0.0 0 0 24.9010 109.6522&#10;  L 25.0968 98.4339&#10;  Z"/>
<path fill="#ededed" d="&#10;  M 174.00 69.57&#10;  L 174.00 82.93&#10;  L 164.46 83.28&#10;  Q 163.07 83.33 163.07 81.94&#10;  L 163.07 70.35&#10;  A 1.17 1.16 -88.8 0 1 164.28 69.18&#10;  L 174.00 69.57&#10;  Z"/>
<path fill="#fefefe" d="&#10;  M 24.76 70.45&#10;  L 24.92 81.89&#10;  A 1.12 1.12 0.0 0 1 23.79 83.02&#10;  L 12.34 82.87&#10;  A 1.12 1.12 0.0 0 1 11.24 81.76&#10;  L 11.19 70.71&#10;  A 1.12 1.12 0.0 0 1 12.29 69.59&#10;  L 23.61 69.34&#10;  A 1.12 1.12 0.0 0 1 24.76 70.45&#10;  Z"/>
<path fill="#fefefe" d="&#10;  M 0.00 96.97&#10;  L 0.00 82.93&#10;  L 10.35 83.35&#10;  A 0.69 0.68 1.3 0 1 11.01 84.03&#10;  L 11.01 94.92&#10;  A 2.01 2.01 0.0 0 1 9.01 96.93&#10;  L 0.00 96.97&#10;  Z"/>
<rect fill="#ededed" x="-7.04" y="-6.99" transform="translate(155.98,90.03) rotate(-0.2)" width="14.08" height="13.98" rx="1.79"/>
<path fill="#ededed" d="&#10;  M 174.00 97.24&#10;  L 174.00 110.37&#10;  Q 168.48 111.17 163.05 110.20&#10;  Q 162.75 110.15 162.75 109.85&#10;  L 162.75 98.20&#10;  A 0.89 0.89 0.0 0 1 163.49 97.32&#10;  Q 168.62 96.43 174.00 97.24&#10;  Z"/>
<rect fill="#fefefe" x="-7.05" y="-6.80" transform="translate(17.95,103.92) rotate(1.0)" width="14.10" height="13.60" rx="1.19"/>
<path fill="#ededed" d="&#10;  M 174.00 152.67&#10;  L 174.00 165.13&#10;  Q 169.09 166.48 164.12 166.10&#10;  Q 162.98 166.01 162.98 164.86&#10;  L 162.98 152.93&#10;  A 0.57 0.57 0.0 0 0 162.41 152.36&#10;  L 149.78 152.36&#10;  Q 149.14 152.36 149.14 153.00&#10;  L 149.14 165.27&#10;  A 0.85 0.85 0.0 0 1 148.29 166.12&#10;  L 137.28 166.12&#10;  A 2.01 2.01 0.0 0 1 135.27 164.11&#10;  L 135.27 152.75&#10;  A 0.56 0.56 0.0 0 1 135.83 152.19&#10;  L 148.66 152.19&#10;  A 0.38 0.38 0.0 0 0 149.04 151.81&#10;  L 149.04 139.13&#10;  Q 149.04 138.81 148.73 138.81&#10;  L 136.07 138.81&#10;  A 1.34 1.34 0.0 0 1 134.73 137.39&#10;  L 135.35 125.08&#10;  A 0.90 0.90 0.0 0 0 134.21 124.17&#10;  L 128.34 125.85&#10;  A 0.73 0.70 -34.2 0 1 127.74 125.75&#10;  Q 126.73 125.05 126.18 123.47&#10;  Q 127.57 120.99 128.76 118.29&#10;  Q 129.37 116.89 130.14 116.55&#10;  Q 131.09 116.12 132.22 116.95&#10;  Q 132.71 117.30 133.31 118.32&#10;  Q 135.29 121.67 138.17 122.69&#10;  A 2.06 2.06 0.0 0 0 140.91 120.84&#10;  Q 141.44 108.84 138.13 97.50&#10;  Q 143.45 96.55 148.43 97.15&#10;  A 1.29 1.28 5.2 0 1 149.56 98.50&#10;  L 148.95 110.72&#10;  Q 148.92 111.13 149.34 111.11&#10;  L 162.30 110.54&#10;  Q 163.06 110.51 163.06 111.27&#10;  L 163.06 122.64&#10;  A 2.07 2.07 0.0 0 1 160.99 124.71&#10;  L 150.01 124.71&#10;  A 0.73 0.72 -0.0 0 0 149.28 125.43&#10;  L 149.28 138.12&#10;  A 0.35 0.35 0.0 0 0 149.63 138.47&#10;  L 161.94 138.47&#10;  A 1.10 1.10 0.0 0 1 163.04 139.57&#10;  L 163.04 151.46&#10;  Q 163.04 151.90 163.48 151.94&#10;  L 174.00 152.67&#10;  Z"/>
<path fill="#fefefe" d="&#10;  M 0.00 124.63&#10;  L 0.00 110.54&#10;  L 10.09 110.85&#10;  A 0.94 0.93 1.0 0 1 11.00 111.78&#10;  L 11.00 123.65&#10;  A 0.76 0.76 0.0 0 1 10.26 124.41&#10;  L 0.00 124.63&#10;  Z"/>
<path fill="#fefefe" d="&#10;  M 174.00 165.13&#10;  L 174.00 180.00&#10;  L 162.29 180.00&#10;  Q 163.69 173.73 162.93 166.81&#10;  A 0.89 0.87 -2.9 0 0 162.05 166.03&#10;  L 149.99 166.03&#10;  A 0.96 0.95 -0.0 0 0 149.03 166.98&#10;  L 149.03 178.75&#10;  Q 149.03 179.34 149.56 179.61&#10;  Q 150.37 180.03 151.52 180.00&#10;  L 134.46 180.00&#10;  Q 135.91 173.35 135.23 166.60&#10;  A 0.68 0.67 87.2 0 0 134.56 165.99&#10;  L 122.28 165.99&#10;  A 0.52 0.52 0.0 0 1 121.76 165.47&#10;  L 121.76 152.92&#10;  Q 121.76 152.24 122.44 152.24&#10;  L 134.26 152.24&#10;  A 1.16 1.16 0.0 0 0 135.42 151.08&#10;  L 135.42 141.10&#10;  Q 135.42 140.59 134.97 140.35&#10;  Q 134.25 139.97 133.30 139.83&#10;  C 133.36 136.65 130.53 135.86 128.36 134.64&#10;  Q 120.69 130.37 126.18 123.47&#10;  Q 126.73 125.05 127.74 125.75&#10;  A 0.73 0.70 -34.2 0 0 128.34 125.85&#10;  L 134.21 124.17&#10;  A 0.90 0.90 0.0 0 1 135.35 125.08&#10;  L 134.73 137.39&#10;  A 1.34 1.34 0.0 0 0 136.07 138.81&#10;  L 148.73 138.81&#10;  Q 149.04 138.81 149.04 139.13&#10;  L 149.04 151.81&#10;  A 0.38 0.38 0.0 0 1 148.66 152.19&#10;  L 135.83 152.19&#10;  A 0.56 0.56 0.0 0 0 135.27 152.75&#10;  L 135.27 164.11&#10;  A 2.01 2.01 0.0 0 0 137.28 166.12&#10;  L 148.29 166.12&#10;  A 0.85 0.85 0.0 0 0 149.14 165.27&#10;  L 149.14 153.00&#10;  Q 149.14 152.36 149.78 152.36&#10;  L 162.41 152.36&#10;  A 0.57 0.57 0.0 0 1 162.98 152.93&#10;  L 162.98 164.86&#10;  Q 162.98 166.01 164.12 166.10&#10;  Q 169.09 166.48 174.00 165.13&#10;  Z"/>
<path fill="#fefefe" d="&#10;  M 49.47 124.16&#10;  L 55.32 129.53&#10;  A 1.18 1.17 -33.4 0 1 54.91 131.50&#10;  C 51.14 132.83 47.21 134.85 45.65 138.77&#10;  L 39.53 138.38&#10;  A 0.73 0.73 0.0 0 0 38.75 139.11&#10;  L 38.75 151.13&#10;  A 1.10 1.10 0.0 0 0 39.85 152.23&#10;  L 52.20 152.23&#10;  A 0.26 0.26 0.0 0 1 52.46 152.49&#10;  L 52.46 165.58&#10;  Q 52.46 166.18 51.87 166.18&#10;  L 39.40 166.18&#10;  A 1.01 1.01 0.0 0 0 38.39 167.26&#10;  L 39.26 180.00&#10;  L 24.34 180.00&#10;  Q 25.41 173.75 24.91 166.60&#10;  Q 24.88 166.17 25.31 166.17&#10;  L 37.30 166.17&#10;  Q 38.74 166.17 38.74 164.74&#10;  L 38.74 153.49&#10;  A 1.30 1.29 -90.0 0 0 37.45 152.19&#10;  L 26.39 152.19&#10;  A 1.67 1.67 0.0 0 0 24.72 153.86&#10;  L 24.72 164.91&#10;  A 1.11 1.10 -0.0 0 1 23.61 166.01&#10;  L 12.40 166.01&#10;  A 1.39 1.38 -87.5 0 0 11.02 167.28&#10;  Q 10.42 174.30 11.57 180.00&#10;  L 0.00 180.00&#10;  L 0.00 165.55&#10;  Q 4.65 166.59 10.02 165.96&#10;  A 1.28 1.28 0.0 0 0 11.15 164.69&#10;  L 11.15 153.71&#10;  A 1.42 1.41 -87.1 0 0 9.88 152.30&#10;  Q 4.65 151.75 0.00 152.68&#10;  L 0.00 137.92&#10;  L 10.42 138.74&#10;  A 0.60 0.60 0.0 0 1 10.97 139.34&#10;  L 10.97 151.13&#10;  A 1.11 1.10 0.0 0 0 12.08 152.23&#10;  L 23.97 152.23&#10;  A 0.82 0.82 0.0 0 0 24.79 151.41&#10;  L 24.79 139.34&#10;  A 1.00 1.00 0.0 0 0 23.79 138.34&#10;  L 11.85 138.34&#10;  A 0.56 0.56 0.0 0 1 11.29 137.78&#10;  L 11.29 125.76&#10;  Q 11.29 124.76 12.28 124.76&#10;  L 24.35 124.76&#10;  Q 24.81 124.76 24.81 125.22&#10;  L 24.81 137.84&#10;  Q 24.81 138.54 25.51 138.54&#10;  L 37.93 138.54&#10;  Q 38.88 138.54 38.88 137.59&#10;  L 38.88 126.47&#10;  A 0.98 0.97 -4.1 0 1 39.72 125.51&#10;  L 49.47 124.16&#10;  Z"/>
<path fill="#ededed" d="&#10;  M 174.00 124.79&#10;  L 174.00 138.18&#10;  L 163.87 138.53&#10;  A 0.78 0.78 0.0 0 1 163.07 137.75&#10;  L 163.07 125.69&#10;  Q 163.07 124.51 164.24 124.54&#10;  L 174.00 124.79&#10;  Z"/>
<path fill="#ededed" d="&#10;  M 45.65 138.77&#10;  Q 45.81 143.23 50.53 146.19&#10;  Q 51.60 149.21 53.84 151.54&#10;  Q 54.20 151.91 54.72 151.94&#10;  L 65.80 152.50&#10;  A 0.67 0.66 -88.7 0 1 66.43 153.17&#10;  L 66.43 165.32&#10;  A 0.77 0.76 -0.0 0 0 67.20 166.08&#10;  L 79.43 166.08&#10;  A 0.43 0.43 0.0 0 1 79.86 166.47&#10;  Q 80.56 173.32 79.56 180.00&#10;  L 66.67 180.00&#10;  L 65.87 167.10&#10;  Q 65.81 166.24 64.95 166.24&#10;  L 53.20 166.24&#10;  Q 52.62 166.24 52.62 166.82&#10;  C 52.70 172.03 53.15 176.09 51.82 180.00&#10;  L 39.26 180.00&#10;  L 38.39 167.26&#10;  A 1.01 1.01 0.0 0 1 39.40 166.18&#10;  L 51.87 166.18&#10;  Q 52.46 166.18 52.46 165.58&#10;  L 52.46 152.49&#10;  A 0.26 0.26 0.0 0 0 52.20 152.23&#10;  L 39.85 152.23&#10;  A 1.10 1.10 0.0 0 1 38.75 151.13&#10;  L 38.75 139.11&#10;  A 0.73 0.73 0.0 0 1 39.53 138.38&#10;  L 45.65 138.77&#10;  Z"/>
<path fill="#ededed" d="&#10;  M 134.46 180.00&#10;  L 123.26 180.00&#10;  Q 122.41 179.94 121.85 179.63&#10;  Q 121.39 179.36 121.39 178.82&#10;  L 121.39 167.14&#10;  A 0.96 0.96 0.0 0 0 120.43 166.18&#10;  L 108.62 166.18&#10;  A 0.95 0.95 0.0 0 1 107.67 165.23&#10;  L 107.67 153.18&#10;  A 0.72 0.72 0.0 0 0 106.95 152.46&#10;  L 94.40 152.46&#10;  A 0.44 0.43 0.0 0 0 93.96 152.89&#10;  L 93.96 165.54&#10;  A 0.59 0.59 0.0 0 0 94.55 166.13&#10;  L 107.03 166.13&#10;  A 0.72 0.72 0.0 0 1 107.75 166.78&#10;  Q 108.36 173.34 107.32 180.00&#10;  L 94.62 180.00&#10;  Q 92.98 173.95 93.88 166.77&#10;  A 0.48 0.48 0.0 0 0 93.40 166.23&#10;  L 80.67 166.23&#10;  A 0.73 0.73 0.0 0 1 79.94 165.50&#10;  L 79.94 152.80&#10;  Q 79.94 152.05 80.68 152.05&#10;  L 93.15 152.05&#10;  A 0.69 0.69 0.0 0 0 93.84 151.40&#10;  L 94.22 144.86&#10;  Q 105.64 148.53 117.76 148.05&#10;  C 122.44 147.86 133.06 146.40 133.30 139.83&#10;  Q 134.25 139.97 134.97 140.35&#10;  Q 135.42 140.59 135.42 141.10&#10;  L 135.42 151.08&#10;  A 1.16 1.16 0.0 0 1 134.26 152.24&#10;  L 122.44 152.24&#10;  Q 121.76 152.24 121.76 152.92&#10;  L 121.76 165.47&#10;  A 0.52 0.52 0.0 0 0 122.28 165.99&#10;  L 134.56 165.99&#10;  A 0.68 0.67 87.2 0 1 135.23 166.60&#10;  Q 135.91 173.35 134.46 180.00&#10;  Z"/>
<path fill="#fefefe" d="&#10;  M 94.22 144.86&#10;  L 93.84 151.40&#10;  A 0.69 0.69 0.0 0 1 93.15 152.05&#10;  L 80.68 152.05&#10;  Q 79.94 152.05 79.94 152.80&#10;  L 79.94 165.50&#10;  A 0.73 0.73 0.0 0 0 80.67 166.23&#10;  L 93.40 166.23&#10;  A 0.48 0.48 0.0 0 1 93.88 166.77&#10;  Q 92.98 173.95 94.62 180.00&#10;  L 79.56 180.00&#10;  Q 80.56 173.32 79.86 166.47&#10;  A 0.43 0.43 0.0 0 0 79.43 166.08&#10;  L 67.20 166.08&#10;  A 0.77 0.76 -0.0 0 1 66.43 165.32&#10;  L 66.43 153.17&#10;  A 0.67 0.66 -88.7 0 0 65.80 152.50&#10;  L 54.72 151.94&#10;  Q 54.20 151.91 53.84 151.54&#10;  Q 51.60 149.21 50.53 146.19&#10;  Q 54.15 148.76 57.08 149.45&#10;  Q 65.85 151.50 74.40 148.73&#10;  Q 77.10 147.85 84.75 144.74&#10;  Q 89.13 142.96 94.22 144.86&#10;  Z"/>
<path fill="#ededed" d="&#10;  M 24.34 180.00&#10;  L 11.57 180.00&#10;  Q 10.42 174.30 11.02 167.28&#10;  A 1.39 1.38 -87.5 0 1 12.40 166.01&#10;  L 23.61 166.01&#10;  A 1.11 1.10 0.0 0 0 24.72 164.91&#10;  L 24.72 153.86&#10;  A 1.67 1.67 0.0 0 1 26.39 152.19&#10;  L 37.45 152.19&#10;  A 1.30 1.29 90.0 0 1 38.74 153.49&#10;  L 38.74 164.74&#10;  Q 38.74 166.17 37.30 166.17&#10;  L 25.31 166.17&#10;  Q 24.88 166.17 24.91 166.60&#10;  Q 25.41 173.75 24.34 180.00&#10;  Z"/>
<path fill="#ededed" d="&#10;  M 0.00 165.55&#10;  L 0.00 152.68&#10;  Q 4.65 151.75 9.88 152.30&#10;  A 1.42 1.41 -87.1 0 1 11.15 153.71&#10;  L 11.15 164.69&#10;  A 1.28 1.28 0.0 0 1 10.02 165.96&#10;  Q 4.65 166.59 0.00 165.55&#10;  Z"/>
<path fill="#fefefe" d="&#10;  M 123.26 180.00&#10;  L 107.32 180.00&#10;  Q 108.36 173.34 107.75 166.78&#10;  A 0.72 0.72 0.0 0 0 107.03 166.13&#10;  L 94.55 166.13&#10;  A 0.59 0.59 0.0 0 1 93.96 165.54&#10;  L 93.96 152.89&#10;  A 0.44 0.43 -0.0 0 1 94.40 152.46&#10;  L 106.95 152.46&#10;  A 0.72 0.72 0.0 0 1 107.67 153.18&#10;  L 107.67 165.23&#10;  A 0.95 0.95 0.0 0 0 108.62 166.18&#10;  L 120.43 166.18&#10;  A 0.96 0.96 0.0 0 1 121.39 167.14&#10;  L 121.39 178.82&#10;  Q 121.39 179.36 121.85 179.63&#10;  Q 122.41 179.94 123.26 180.00&#10;  Z"/>
<path fill="#ededed" d="&#10;  M 162.29 180.00&#10;  L 151.52 180.00&#10;  Q 150.37 180.03 149.56 179.61&#10;  Q 149.03 179.34 149.03 178.75&#10;  L 149.03 166.98&#10;  A 0.96 0.95 -0.0 0 1 149.99 166.03&#10;  L 162.05 166.03&#10;  A 0.89 0.87 -2.9 0 1 162.93 166.81&#10;  Q 163.69 173.73 162.29 180.00&#10;  Z"/>
<path fill="#fefefe" d="&#10;  M 66.67 180.00&#10;  L 51.82 180.00&#10;  C 53.15 176.09 52.70 172.03 52.62 166.82&#10;  Q 52.62 166.24 53.20 166.24&#10;  L 64.95 166.24&#10;  Q 65.81 166.24 65.87 167.10&#10;  L 66.67 180.00&#10;  Z"/>
</svg>